<svg xmlns="http://www.w3.org/2000/svg" xmlns:xlink="http://www.w3.org/1999/xlink" width="500" zoomAndPan="magnify" viewBox="0 0 375 374.999991" height="500" preserveAspectRatio="xMidYMid meet" version="1.0"><defs><g/><linearGradient x1="0" gradientTransform="matrix(0.75, 0, 0, 0.75, 0.0000045, 0)" y1="0" x2="499.999979" gradientUnits="userSpaceOnUse" y2="499.999979" id="d980a7622e"><stop stop-opacity="1" stop-color="rgb(72.158813%, 90.19928%, 83.529663%)" offset="0"/><stop stop-opacity="1" stop-color="rgb(71.783447%, 90.014648%, 83.69751%)" offset="0.00390625"/><stop stop-opacity="1" stop-color="rgb(71.408081%, 89.831543%, 83.866882%)" offset="0.0078125"/><stop stop-opacity="1" stop-color="rgb(71.032715%, 89.646912%, 84.034729%)" offset="0.0117187"/><stop stop-opacity="1" stop-color="rgb(70.657349%, 89.463806%, 84.204102%)" offset="0.015625"/><stop stop-opacity="1" stop-color="rgb(70.281982%, 89.279175%, 84.371948%)" offset="0.0195312"/><stop stop-opacity="1" stop-color="rgb(69.906616%, 89.096069%, 84.541321%)" offset="0.0234375"/><stop stop-opacity="1" stop-color="rgb(69.53125%, 88.911438%, 84.709167%)" offset="0.0273438"/><stop stop-opacity="1" stop-color="rgb(69.155884%, 88.726807%, 84.877014%)" offset="0.03125"/><stop stop-opacity="1" stop-color="rgb(68.780518%, 88.542175%, 85.044861%)" offset="0.0351562"/><stop stop-opacity="1" stop-color="rgb(68.405151%, 88.35907%, 85.214233%)" offset="0.0390625"/><stop stop-opacity="1" stop-color="rgb(68.029785%, 88.174438%, 85.38208%)" offset="0.0429687"/><stop stop-opacity="1" stop-color="rgb(67.654419%, 87.991333%, 85.551453%)" offset="0.046875"/><stop stop-opacity="1" stop-color="rgb(67.279053%, 87.806702%, 85.719299%)" offset="0.0507812"/><stop stop-opacity="1" stop-color="rgb(66.903687%, 87.623596%, 85.888672%)" offset="0.0546875"/><stop stop-opacity="1" stop-color="rgb(66.52832%, 87.438965%, 86.056519%)" offset="0.0585938"/><stop stop-opacity="1" stop-color="rgb(66.152954%, 87.255859%, 86.225891%)" offset="0.0625"/><stop stop-opacity="1" stop-color="rgb(65.777588%, 87.071228%, 86.393738%)" offset="0.0664062"/><stop stop-opacity="1" stop-color="rgb(65.402222%, 86.888123%, 86.56311%)" offset="0.0703125"/><stop stop-opacity="1" stop-color="rgb(65.026855%, 86.703491%, 86.730957%)" offset="0.0742187"/><stop stop-opacity="1" stop-color="rgb(64.651489%, 86.51886%, 86.90033%)" offset="0.078125"/><stop stop-opacity="1" stop-color="rgb(64.276123%, 86.334229%, 87.068176%)" offset="0.0820312"/><stop stop-opacity="1" stop-color="rgb(63.900757%, 86.151123%, 87.237549%)" offset="0.0859375"/><stop stop-opacity="1" stop-color="rgb(63.525391%, 85.966492%, 87.405396%)" offset="0.0898437"/><stop stop-opacity="1" stop-color="rgb(63.150024%, 85.783386%, 87.574768%)" offset="0.09375"/><stop stop-opacity="1" stop-color="rgb(62.774658%, 85.598755%, 87.742615%)" offset="0.0976562"/><stop stop-opacity="1" stop-color="rgb(62.399292%, 85.415649%, 87.911987%)" offset="0.101562"/><stop stop-opacity="1" stop-color="rgb(62.023926%, 85.231018%, 88.079834%)" offset="0.105469"/><stop stop-opacity="1" stop-color="rgb(61.64856%, 85.047913%, 88.249207%)" offset="0.109375"/><stop stop-opacity="1" stop-color="rgb(61.273193%, 84.863281%, 88.417053%)" offset="0.113281"/><stop stop-opacity="1" stop-color="rgb(60.897827%, 84.680176%, 88.586426%)" offset="0.117188"/><stop stop-opacity="1" stop-color="rgb(60.522461%, 84.495544%, 88.754272%)" offset="0.121094"/><stop stop-opacity="1" stop-color="rgb(60.147095%, 84.312439%, 88.923645%)" offset="0.125"/><stop stop-opacity="1" stop-color="rgb(59.771729%, 84.127808%, 89.091492%)" offset="0.128906"/><stop stop-opacity="1" stop-color="rgb(59.396362%, 83.943176%, 89.259338%)" offset="0.132812"/><stop stop-opacity="1" stop-color="rgb(59.020996%, 83.758545%, 89.427185%)" offset="0.136719"/><stop stop-opacity="1" stop-color="rgb(58.64563%, 83.575439%, 89.596558%)" offset="0.140625"/><stop stop-opacity="1" stop-color="rgb(58.270264%, 83.390808%, 89.764404%)" offset="0.144531"/><stop stop-opacity="1" stop-color="rgb(57.894897%, 83.207703%, 89.933777%)" offset="0.148437"/><stop stop-opacity="1" stop-color="rgb(57.519531%, 83.023071%, 90.101624%)" offset="0.152344"/><stop stop-opacity="1" stop-color="rgb(57.144165%, 82.839966%, 90.270996%)" offset="0.15625"/><stop stop-opacity="1" stop-color="rgb(56.768799%, 82.655334%, 90.438843%)" offset="0.160156"/><stop stop-opacity="1" stop-color="rgb(56.393433%, 82.472229%, 90.608215%)" offset="0.164062"/><stop stop-opacity="1" stop-color="rgb(56.018066%, 82.287598%, 90.776062%)" offset="0.167969"/><stop stop-opacity="1" stop-color="rgb(55.6427%, 82.104492%, 90.945435%)" offset="0.171875"/><stop stop-opacity="1" stop-color="rgb(55.267334%, 81.919861%, 91.113281%)" offset="0.175781"/><stop stop-opacity="1" stop-color="rgb(54.891968%, 81.735229%, 91.282654%)" offset="0.179687"/><stop stop-opacity="1" stop-color="rgb(54.516602%, 81.550598%, 91.4505%)" offset="0.183594"/><stop stop-opacity="1" stop-color="rgb(54.141235%, 81.367493%, 91.619873%)" offset="0.1875"/><stop stop-opacity="1" stop-color="rgb(53.764343%, 81.182861%, 91.78772%)" offset="0.191406"/><stop stop-opacity="1" stop-color="rgb(53.388977%, 80.999756%, 91.957092%)" offset="0.195312"/><stop stop-opacity="1" stop-color="rgb(53.460693%, 80.809021%, 91.98761%)" offset="0.203125"/><stop stop-opacity="1" stop-color="rgb(54.277039%, 80.419922%, 91.841125%)" offset="0.207031"/><stop stop-opacity="1" stop-color="rgb(55.020142%, 80.221558%, 91.665649%)" offset="0.210938"/><stop stop-opacity="1" stop-color="rgb(55.761719%, 80.021667%, 91.488647%)" offset="0.214844"/><stop stop-opacity="1" stop-color="rgb(56.504822%, 79.823303%, 91.313171%)" offset="0.21875"/><stop stop-opacity="1" stop-color="rgb(57.247925%, 79.624939%, 91.136169%)" offset="0.222656"/><stop stop-opacity="1" stop-color="rgb(57.991028%, 79.426575%, 90.960693%)" offset="0.226562"/><stop stop-opacity="1" stop-color="rgb(58.734131%, 79.226685%, 90.783691%)" offset="0.230469"/><stop stop-opacity="1" stop-color="rgb(59.477234%, 79.02832%, 90.608215%)" offset="0.234375"/><stop stop-opacity="1" stop-color="rgb(60.220337%, 78.82843%, 90.432739%)" offset="0.238281"/><stop stop-opacity="1" stop-color="rgb(60.96344%, 78.630066%, 90.257263%)" offset="0.242188"/><stop stop-opacity="1" stop-color="rgb(61.706543%, 78.430176%, 90.080261%)" offset="0.246094"/><stop stop-opacity="1" stop-color="rgb(62.449646%, 78.231812%, 89.904785%)" offset="0.25"/><stop stop-opacity="1" stop-color="rgb(63.192749%, 78.031921%, 89.727783%)" offset="0.253906"/><stop stop-opacity="1" stop-color="rgb(63.935852%, 77.833557%, 89.552307%)" offset="0.257812"/><stop stop-opacity="1" stop-color="rgb(64.677429%, 77.633667%, 89.375305%)" offset="0.261719"/><stop stop-opacity="1" stop-color="rgb(65.420532%, 77.435303%, 89.199829%)" offset="0.265625"/><stop stop-opacity="1" stop-color="rgb(66.163635%, 77.235413%, 89.022827%)" offset="0.269531"/><stop stop-opacity="1" stop-color="rgb(66.906738%, 77.037048%, 88.847351%)" offset="0.273437"/><stop stop-opacity="1" stop-color="rgb(67.649841%, 76.837158%, 88.670349%)" offset="0.277344"/><stop stop-opacity="1" stop-color="rgb(68.392944%, 76.638794%, 88.494873%)" offset="0.28125"/><stop stop-opacity="1" stop-color="rgb(69.136047%, 76.44043%, 88.317871%)" offset="0.285156"/><stop stop-opacity="1" stop-color="rgb(69.87915%, 76.242065%, 88.142395%)" offset="0.289062"/><stop stop-opacity="1" stop-color="rgb(70.622253%, 76.042175%, 87.965393%)" offset="0.292969"/><stop stop-opacity="1" stop-color="rgb(71.365356%, 75.843811%, 87.789917%)" offset="0.296875"/><stop stop-opacity="1" stop-color="rgb(72.106934%, 75.643921%, 87.612915%)" offset="0.300781"/><stop stop-opacity="1" stop-color="rgb(72.850037%, 75.445557%, 87.437439%)" offset="0.304687"/><stop stop-opacity="1" stop-color="rgb(73.59314%, 75.245667%, 87.260437%)" offset="0.308594"/><stop stop-opacity="1" stop-color="rgb(74.336243%, 75.047302%, 87.084961%)" offset="0.3125"/><stop stop-opacity="1" stop-color="rgb(75.079346%, 74.847412%, 86.907959%)" offset="0.316406"/><stop stop-opacity="1" stop-color="rgb(75.822449%, 74.649048%, 86.732483%)" offset="0.320312"/><stop stop-opacity="1" stop-color="rgb(76.565552%, 74.449158%, 86.557007%)" offset="0.324219"/><stop stop-opacity="1" stop-color="rgb(77.308655%, 74.250793%, 86.381531%)" offset="0.328125"/><stop stop-opacity="1" stop-color="rgb(78.051758%, 74.050903%, 86.204529%)" offset="0.332031"/><stop stop-opacity="1" stop-color="rgb(78.794861%, 73.852539%, 86.029053%)" offset="0.335937"/><stop stop-opacity="1" stop-color="rgb(79.537964%, 73.654175%, 85.852051%)" offset="0.339844"/><stop stop-opacity="1" stop-color="rgb(80.281067%, 73.455811%, 85.676575%)" offset="0.34375"/><stop stop-opacity="1" stop-color="rgb(81.022644%, 73.25592%, 85.499573%)" offset="0.347656"/><stop stop-opacity="1" stop-color="rgb(81.765747%, 73.057556%, 85.324097%)" offset="0.351562"/><stop stop-opacity="1" stop-color="rgb(82.50885%, 72.857666%, 85.147095%)" offset="0.355469"/><stop stop-opacity="1" stop-color="rgb(83.251953%, 72.659302%, 84.971619%)" offset="0.359375"/><stop stop-opacity="1" stop-color="rgb(83.995056%, 72.459412%, 84.794617%)" offset="0.363281"/><stop stop-opacity="1" stop-color="rgb(84.738159%, 72.261047%, 84.619141%)" offset="0.367187"/><stop stop-opacity="1" stop-color="rgb(85.481262%, 72.061157%, 84.442139%)" offset="0.371094"/><stop stop-opacity="1" stop-color="rgb(86.224365%, 71.862793%, 84.266663%)" offset="0.375"/><stop stop-opacity="1" stop-color="rgb(86.967468%, 71.662903%, 84.089661%)" offset="0.378906"/><stop stop-opacity="1" stop-color="rgb(87.710571%, 71.464539%, 83.914185%)" offset="0.382812"/><stop stop-opacity="1" stop-color="rgb(88.453674%, 71.264648%, 83.737183%)" offset="0.386719"/><stop stop-opacity="1" stop-color="rgb(89.196777%, 71.066284%, 83.561707%)" offset="0.390625"/><stop stop-opacity="1" stop-color="rgb(89.938354%, 70.86792%, 83.384705%)" offset="0.394531"/><stop stop-opacity="1" stop-color="rgb(90.681458%, 70.669556%, 83.209229%)" offset="0.398438"/><stop stop-opacity="1" stop-color="rgb(90.731812%, 70.530701%, 83.174133%)" offset="0.40625"/><stop stop-opacity="1" stop-color="rgb(90.660095%, 70.269775%, 83.139038%)" offset="0.414062"/><stop stop-opacity="1" stop-color="rgb(90.415955%, 70.024109%, 83.139038%)" offset="0.421875"/><stop stop-opacity="1" stop-color="rgb(90.170288%, 69.778442%, 83.139038%)" offset="0.429688"/><stop stop-opacity="1" stop-color="rgb(89.926147%, 69.534302%, 83.139038%)" offset="0.4375"/><stop stop-opacity="1" stop-color="rgb(89.680481%, 69.288635%, 83.139038%)" offset="0.445312"/><stop stop-opacity="1" stop-color="rgb(89.43634%, 69.042969%, 83.139038%)" offset="0.453125"/><stop stop-opacity="1" stop-color="rgb(89.190674%, 68.797302%, 83.139038%)" offset="0.460938"/><stop stop-opacity="1" stop-color="rgb(88.946533%, 68.553162%, 83.139038%)" offset="0.46875"/><stop stop-opacity="1" stop-color="rgb(88.700867%, 68.307495%, 83.139038%)" offset="0.476562"/><stop stop-opacity="1" stop-color="rgb(88.456726%, 68.061829%, 83.139038%)" offset="0.484375"/><stop stop-opacity="1" stop-color="rgb(88.21106%, 67.816162%, 83.139038%)" offset="0.492188"/><stop stop-opacity="1" stop-color="rgb(87.966919%, 67.572021%, 83.139038%)" offset="0.5"/><stop stop-opacity="1" stop-color="rgb(87.721252%, 67.326355%, 83.139038%)" offset="0.507812"/><stop stop-opacity="1" stop-color="rgb(87.477112%, 67.080688%, 83.139038%)" offset="0.515625"/><stop stop-opacity="1" stop-color="rgb(87.231445%, 66.835022%, 83.139038%)" offset="0.523437"/><stop stop-opacity="1" stop-color="rgb(86.987305%, 66.589355%, 83.139038%)" offset="0.53125"/><stop stop-opacity="1" stop-color="rgb(86.741638%, 66.345215%, 83.139038%)" offset="0.539062"/><stop stop-opacity="1" stop-color="rgb(86.497498%, 66.099548%, 83.139038%)" offset="0.546875"/><stop stop-opacity="1" stop-color="rgb(86.251831%, 65.853882%, 83.139038%)" offset="0.554687"/><stop stop-opacity="1" stop-color="rgb(86.00769%, 65.608215%, 83.139038%)" offset="0.5625"/><stop stop-opacity="1" stop-color="rgb(85.762024%, 65.364075%, 83.139038%)" offset="0.570312"/><stop stop-opacity="1" stop-color="rgb(85.516357%, 65.118408%, 83.139038%)" offset="0.578125"/><stop stop-opacity="1" stop-color="rgb(85.272217%, 64.872742%, 83.139038%)" offset="0.585937"/><stop stop-opacity="1" stop-color="rgb(85.02655%, 64.627075%, 83.139038%)" offset="0.59375"/><stop stop-opacity="1" stop-color="rgb(84.866333%, 64.430237%, 82.922363%)" offset="0.597656"/><stop stop-opacity="1" stop-color="rgb(84.828186%, 64.355469%, 82.707214%)" offset="0.601562"/><stop stop-opacity="1" stop-color="rgb(85.127258%, 64.46991%, 81.626892%)" offset="0.605469"/><stop stop-opacity="1" stop-color="rgb(85.426331%, 64.585876%, 80.54657%)" offset="0.609375"/><stop stop-opacity="1" stop-color="rgb(85.723877%, 64.700317%, 79.466248%)" offset="0.613281"/><stop stop-opacity="1" stop-color="rgb(86.022949%, 64.814758%, 78.387451%)" offset="0.617187"/><stop stop-opacity="1" stop-color="rgb(86.322021%, 64.929199%, 77.307129%)" offset="0.621094"/><stop stop-opacity="1" stop-color="rgb(86.621094%, 65.045166%, 76.226807%)" offset="0.625"/><stop stop-opacity="1" stop-color="rgb(86.91864%, 65.159607%, 75.146484%)" offset="0.628906"/><stop stop-opacity="1" stop-color="rgb(87.217712%, 65.275574%, 74.066162%)" offset="0.632812"/><stop stop-opacity="1" stop-color="rgb(87.515259%, 65.390015%, 72.98584%)" offset="0.636719"/><stop stop-opacity="1" stop-color="rgb(87.814331%, 65.505981%, 71.907043%)" offset="0.640625"/><stop stop-opacity="1" stop-color="rgb(88.113403%, 65.620422%, 70.826721%)" offset="0.644531"/><stop stop-opacity="1" stop-color="rgb(88.412476%, 65.736389%, 69.746399%)" offset="0.648437"/><stop stop-opacity="1" stop-color="rgb(88.710022%, 65.85083%, 68.666077%)" offset="0.652344"/><stop stop-opacity="1" stop-color="rgb(89.009094%, 65.965271%, 67.585754%)" offset="0.65625"/><stop stop-opacity="1" stop-color="rgb(89.308167%, 66.079712%, 66.505432%)" offset="0.660156"/><stop stop-opacity="1" stop-color="rgb(89.607239%, 66.195679%, 65.426636%)" offset="0.664062"/><stop stop-opacity="1" stop-color="rgb(89.904785%, 66.31012%, 64.346313%)" offset="0.667969"/><stop stop-opacity="1" stop-color="rgb(90.203857%, 66.426086%, 63.265991%)" offset="0.671875"/><stop stop-opacity="1" stop-color="rgb(90.50293%, 66.540527%, 62.185669%)" offset="0.675781"/><stop stop-opacity="1" stop-color="rgb(90.802002%, 66.656494%, 61.105347%)" offset="0.679687"/><stop stop-opacity="1" stop-color="rgb(91.099548%, 66.770935%, 60.025024%)" offset="0.683594"/><stop stop-opacity="1" stop-color="rgb(91.398621%, 66.885376%, 58.946228%)" offset="0.6875"/><stop stop-opacity="1" stop-color="rgb(91.696167%, 66.999817%, 57.865906%)" offset="0.691406"/><stop stop-opacity="1" stop-color="rgb(91.995239%, 67.115784%, 56.785583%)" offset="0.695312"/><stop stop-opacity="1" stop-color="rgb(92.294312%, 67.230225%, 55.705261%)" offset="0.699219"/><stop stop-opacity="1" stop-color="rgb(92.593384%, 67.346191%, 54.624939%)" offset="0.703125"/><stop stop-opacity="1" stop-color="rgb(92.89093%, 67.460632%, 53.544617%)" offset="0.707031"/><stop stop-opacity="1" stop-color="rgb(93.190002%, 67.576599%, 52.464294%)" offset="0.710937"/><stop stop-opacity="1" stop-color="rgb(93.489075%, 67.69104%, 51.383972%)" offset="0.714844"/><stop stop-opacity="1" stop-color="rgb(93.788147%, 67.807007%, 50.305176%)" offset="0.71875"/><stop stop-opacity="1" stop-color="rgb(94.085693%, 67.921448%, 49.224854%)" offset="0.722656"/><stop stop-opacity="1" stop-color="rgb(94.384766%, 68.035889%, 48.144531%)" offset="0.726562"/><stop stop-opacity="1" stop-color="rgb(94.683838%, 68.15033%, 47.064209%)" offset="0.730469"/><stop stop-opacity="1" stop-color="rgb(94.98291%, 68.266296%, 45.983887%)" offset="0.734375"/><stop stop-opacity="1" stop-color="rgb(95.280457%, 68.380737%, 44.903564%)" offset="0.738281"/><stop stop-opacity="1" stop-color="rgb(95.579529%, 68.496704%, 43.824768%)" offset="0.742187"/><stop stop-opacity="1" stop-color="rgb(95.877075%, 68.611145%, 42.744446%)" offset="0.746094"/><stop stop-opacity="1" stop-color="rgb(96.176147%, 68.727112%, 41.664124%)" offset="0.75"/><stop stop-opacity="1" stop-color="rgb(96.47522%, 68.841553%, 40.583801%)" offset="0.753906"/><stop stop-opacity="1" stop-color="rgb(96.774292%, 68.95752%, 39.503479%)" offset="0.757812"/><stop stop-opacity="1" stop-color="rgb(97.071838%, 69.07196%, 38.423157%)" offset="0.761719"/><stop stop-opacity="1" stop-color="rgb(97.370911%, 69.186401%, 37.34436%)" offset="0.765625"/><stop stop-opacity="1" stop-color="rgb(97.669983%, 69.300842%, 36.264038%)" offset="0.769531"/><stop stop-opacity="1" stop-color="rgb(97.969055%, 69.416809%, 35.183716%)" offset="0.773438"/><stop stop-opacity="1" stop-color="rgb(98.266602%, 69.53125%, 34.103394%)" offset="0.777344"/><stop stop-opacity="1" stop-color="rgb(98.565674%, 69.647217%, 33.023071%)" offset="0.78125"/><stop stop-opacity="1" stop-color="rgb(98.864746%, 69.761658%, 31.942749%)" offset="0.785156"/><stop stop-opacity="1" stop-color="rgb(99.163818%, 69.877625%, 30.863953%)" offset="0.789062"/><stop stop-opacity="1" stop-color="rgb(99.461365%, 69.992065%, 29.78363%)" offset="0.792969"/><stop stop-opacity="1" stop-color="rgb(99.760437%, 70.106506%, 28.703308%)" offset="0.796875"/><stop stop-opacity="1" stop-color="rgb(99.879456%, 70.387268%, 28.445435%)" offset="0.800781"/><stop stop-opacity="1" stop-color="rgb(100%, 70.66803%, 28.189087%)" offset="0.804688"/><stop stop-opacity="1" stop-color="rgb(100%, 71.058655%, 28.479004%)" offset="0.808594"/><stop stop-opacity="1" stop-color="rgb(100%, 71.44928%, 28.770447%)" offset="0.8125"/><stop stop-opacity="1" stop-color="rgb(100%, 71.839905%, 29.06189%)" offset="0.816406"/><stop stop-opacity="1" stop-color="rgb(100%, 72.23053%, 29.353333%)" offset="0.820312"/><stop stop-opacity="1" stop-color="rgb(100%, 72.621155%, 29.644775%)" offset="0.824219"/><stop stop-opacity="1" stop-color="rgb(100%, 73.01178%, 29.936218%)" offset="0.828125"/><stop stop-opacity="1" stop-color="rgb(100%, 73.402405%, 30.227661%)" offset="0.832031"/><stop stop-opacity="1" stop-color="rgb(100%, 73.79303%, 30.519104%)" offset="0.835938"/><stop stop-opacity="1" stop-color="rgb(100%, 74.183655%, 30.809021%)" offset="0.839844"/><stop stop-opacity="1" stop-color="rgb(100%, 74.57428%, 31.100464%)" offset="0.84375"/><stop stop-opacity="1" stop-color="rgb(100%, 74.964905%, 31.391907%)" offset="0.847656"/><stop stop-opacity="1" stop-color="rgb(100%, 75.35553%, 31.68335%)" offset="0.851562"/><stop stop-opacity="1" stop-color="rgb(100%, 75.746155%, 31.974792%)" offset="0.855469"/><stop stop-opacity="1" stop-color="rgb(100%, 76.13678%, 32.266235%)" offset="0.859375"/><stop stop-opacity="1" stop-color="rgb(100%, 76.527405%, 32.556152%)" offset="0.863281"/><stop stop-opacity="1" stop-color="rgb(100%, 76.91803%, 32.847595%)" offset="0.867188"/><stop stop-opacity="1" stop-color="rgb(100%, 77.308655%, 33.139038%)" offset="0.871094"/><stop stop-opacity="1" stop-color="rgb(100%, 77.69928%, 33.430481%)" offset="0.875"/><stop stop-opacity="1" stop-color="rgb(100%, 78.089905%, 33.721924%)" offset="0.878906"/><stop stop-opacity="1" stop-color="rgb(100%, 78.48053%, 34.013367%)" offset="0.882812"/><stop stop-opacity="1" stop-color="rgb(100%, 78.871155%, 34.303284%)" offset="0.886719"/><stop stop-opacity="1" stop-color="rgb(100%, 79.26178%, 34.594727%)" offset="0.890625"/><stop stop-opacity="1" stop-color="rgb(100%, 79.652405%, 34.886169%)" offset="0.894531"/><stop stop-opacity="1" stop-color="rgb(100%, 80.04303%, 35.177612%)" offset="0.898438"/><stop stop-opacity="1" stop-color="rgb(100%, 80.433655%, 35.469055%)" offset="0.902344"/><stop stop-opacity="1" stop-color="rgb(100%, 80.82428%, 35.760498%)" offset="0.90625"/><stop stop-opacity="1" stop-color="rgb(100%, 81.214905%, 36.050415%)" offset="0.910156"/><stop stop-opacity="1" stop-color="rgb(100%, 81.60553%, 36.341858%)" offset="0.914062"/><stop stop-opacity="1" stop-color="rgb(100%, 81.996155%, 36.633301%)" offset="0.917969"/><stop stop-opacity="1" stop-color="rgb(100%, 82.38678%, 36.924744%)" offset="0.921875"/><stop stop-opacity="1" stop-color="rgb(100%, 82.777405%, 37.216187%)" offset="0.925781"/><stop stop-opacity="1" stop-color="rgb(100%, 83.16803%, 37.507629%)" offset="0.929688"/><stop stop-opacity="1" stop-color="rgb(100%, 83.558655%, 37.799072%)" offset="0.933594"/><stop stop-opacity="1" stop-color="rgb(100%, 83.94928%, 38.090515%)" offset="0.9375"/><stop stop-opacity="1" stop-color="rgb(100%, 84.339905%, 38.380432%)" offset="0.941406"/><stop stop-opacity="1" stop-color="rgb(100%, 84.73053%, 38.671875%)" offset="0.945312"/><stop stop-opacity="1" stop-color="rgb(100%, 85.121155%, 38.963318%)" offset="0.949219"/><stop stop-opacity="1" stop-color="rgb(100%, 85.51178%, 39.254761%)" offset="0.953125"/><stop stop-opacity="1" stop-color="rgb(100%, 85.902405%, 39.546204%)" offset="0.957031"/><stop stop-opacity="1" stop-color="rgb(100%, 86.29303%, 39.837646%)" offset="0.960938"/><stop stop-opacity="1" stop-color="rgb(100%, 86.683655%, 40.127563%)" offset="0.964844"/><stop stop-opacity="1" stop-color="rgb(100%, 87.07428%, 40.419006%)" offset="0.96875"/><stop stop-opacity="1" stop-color="rgb(100%, 87.464905%, 40.710449%)" offset="0.972656"/><stop stop-opacity="1" stop-color="rgb(100%, 87.85553%, 41.001892%)" offset="0.976562"/><stop stop-opacity="1" stop-color="rgb(100%, 88.246155%, 41.293335%)" offset="0.980469"/><stop stop-opacity="1" stop-color="rgb(100%, 88.63678%, 41.584778%)" offset="0.984375"/><stop stop-opacity="1" stop-color="rgb(100%, 89.027405%, 41.874695%)" offset="0.988281"/><stop stop-opacity="1" stop-color="rgb(100%, 89.41803%, 42.166138%)" offset="0.992188"/><stop stop-opacity="1" stop-color="rgb(100%, 89.808655%, 42.457581%)" offset="0.996094"/><stop stop-opacity="1" stop-color="rgb(100%, 90.19928%, 42.749023%)" offset="1"/></linearGradient><clipPath id="7b14bb5509"><path d="M 147.769531 96.585938 L 225.128906 96.585938 L 225.128906 205.851562 L 147.769531 205.851562 Z M 147.769531 96.585938 " clip-rule="nonzero"/></clipPath><clipPath id="41d839471a"><path d="M 161 129 L 206 129 L 206 174 L 161 174 Z M 161 129 " clip-rule="nonzero"/></clipPath><clipPath id="ff86e7e79e"><path d="M 133.636719 189.839844 L 185.164062 85.632812 L 241.636719 113.558594 L 190.113281 217.765625 Z M 133.636719 189.839844 " clip-rule="nonzero"/></clipPath><clipPath id="62da07ab6f"><path d="M 133.636719 189.839844 L 185.164062 85.632812 L 241.636719 113.558594 L 190.113281 217.765625 Z M 133.636719 189.839844 " clip-rule="nonzero"/></clipPath><clipPath id="5b9aea1434"><path d="M 217 139 L 219 139 L 219 140 L 217 140 Z M 217 139 " clip-rule="nonzero"/></clipPath><clipPath id="25a5251a6f"><path d="M 133.636719 189.839844 L 185.164062 85.632812 L 241.636719 113.558594 L 190.113281 217.765625 Z M 133.636719 189.839844 " clip-rule="nonzero"/></clipPath><clipPath id="3c1bab3931"><path d="M 133.636719 189.839844 L 185.164062 85.632812 L 241.636719 113.558594 L 190.113281 217.765625 Z M 133.636719 189.839844 " clip-rule="nonzero"/></clipPath><clipPath id="a33f8d0cfd"><path d="M 153 101 L 221 101 L 221 206 L 153 206 Z M 153 101 " clip-rule="nonzero"/></clipPath><clipPath id="c42f8ae5b7"><path d="M 133.636719 189.839844 L 185.164062 85.632812 L 241.636719 113.558594 L 190.113281 217.765625 Z M 133.636719 189.839844 " clip-rule="nonzero"/></clipPath><clipPath id="9f90d10e76"><path d="M 133.636719 189.839844 L 185.164062 85.632812 L 241.636719 113.558594 L 190.113281 217.765625 Z M 133.636719 189.839844 " clip-rule="nonzero"/></clipPath><clipPath id="8b9eec1275"><path d="M 129 195 L 131 195 L 131 207 L 129 207 Z M 129 195 " clip-rule="nonzero"/></clipPath><clipPath id="2b5029475e"><path d="M 151.398438 211.785156 L 129.976562 204.902344 L 136.171875 185.625 L 157.59375 192.507812 Z M 151.398438 211.785156 " clip-rule="nonzero"/></clipPath><clipPath id="85bb293dfe"><path d="M 170.769531 235.15625 L 112.933594 216.574219 L 124.175781 181.582031 L 182.011719 200.164062 Z M 170.769531 235.15625 " clip-rule="nonzero"/></clipPath><clipPath id="91af9fd17f"><path d="M 137 188 L 147 188 L 147 198 L 137 198 Z M 137 188 " clip-rule="nonzero"/></clipPath><clipPath id="127f081bbf"><path d="M 151.398438 211.785156 L 129.976562 204.902344 L 136.171875 185.625 L 157.59375 192.507812 Z M 151.398438 211.785156 " clip-rule="nonzero"/></clipPath><clipPath id="4eaa5aba55"><path d="M 170.769531 235.15625 L 112.933594 216.574219 L 124.175781 181.582031 L 182.011719 200.164062 Z M 170.769531 235.15625 " clip-rule="nonzero"/></clipPath><clipPath id="211c0f49b1"><path d="M 142 199 L 152 199 L 152 210 L 142 210 Z M 142 199 " clip-rule="nonzero"/></clipPath><clipPath id="8332218934"><path d="M 151.398438 211.785156 L 129.976562 204.902344 L 136.171875 185.625 L 157.59375 192.507812 Z M 151.398438 211.785156 " clip-rule="nonzero"/></clipPath><clipPath id="de8239afd8"><path d="M 170.769531 235.15625 L 112.933594 216.574219 L 124.175781 181.582031 L 182.011719 200.164062 Z M 170.769531 235.15625 " clip-rule="nonzero"/></clipPath><clipPath id="1669d36f45"><rect x="0" width="111" y="0" height="24"/></clipPath></defs><rect x="-37.5" width="450" fill="#ffffff" y="-37.499999" height="449.999989" fill-opacity="1"/><rect x="-37.5" fill="url(#d980a7622e)" width="450" y="-37.499999" height="449.999989"/><g clip-path="url(#7b14bb5509)"><path fill="#100f0d" d="M 217.632812 106.769531 C 214.6875 102.140625 210.609375 99.566406 205.261719 98.226562 C 201.667969 97.328125 197.976562 96.988281 194.285156 96.777344 C 187.757812 96.402344 181.265625 97 174.789062 97.75 C 166.046875 98.757812 157.136719 99.773438 152.386719 108.285156 C 147.625 116.816406 147.5 128.160156 147.757812 137.667969 C 148.054688 148.722656 149.222656 159.472656 150.609375 170.425781 C 151.703125 179.074219 153.15625 187.769531 155.726562 196.167969 C 159.65625 209.007812 207.363281 208.4375 217.953125 198.78125 C 224.226562 193.0625 224.21875 183 224.816406 174.746094 C 225.503906 165.273438 224.449219 155.820312 223.582031 146.394531 C 222.734375 137.171875 219.910156 115.796875 217.632812 106.769531 Z M 217.632812 106.769531 " fill-opacity="1" fill-rule="evenodd"/></g><g clip-path="url(#41d839471a)"><g clip-path="url(#ff86e7e79e)"><g clip-path="url(#62da07ab6f)"><path fill="#ffffff" d="M 193.050781 131.816406 C 193.699219 132.140625 194.335938 132.492188 194.953125 132.878906 C 195.570312 133.261719 196.167969 133.675781 196.742188 134.117188 C 197.320312 134.5625 197.871094 135.03125 198.402344 135.53125 C 198.933594 136.027344 199.4375 136.550781 199.917969 137.097656 C 200.394531 137.644531 200.847656 138.214844 201.269531 138.804688 C 201.691406 139.398438 202.085938 140.007812 202.449219 140.640625 C 202.8125 141.269531 203.144531 141.914062 203.441406 142.578125 C 203.742188 143.242188 204.007812 143.917969 204.242188 144.605469 C 204.472656 145.292969 204.671875 145.992188 204.835938 146.703125 C 205 147.410156 205.132812 148.125 205.226562 148.847656 C 205.320312 149.566406 205.378906 150.289062 205.402344 151.019531 C 205.425781 151.746094 205.410156 152.472656 205.363281 153.195312 C 205.316406 153.921875 205.230469 154.644531 205.113281 155.359375 C 204.992188 156.078125 204.839844 156.789062 204.648438 157.492188 C 204.460938 158.191406 204.238281 158.882812 203.980469 159.566406 C 203.722656 160.246094 203.433594 160.910156 203.113281 161.5625 C 202.789062 162.214844 202.4375 162.847656 202.050781 163.464844 C 201.667969 164.082031 201.253906 164.679688 200.808594 165.257812 C 200.367188 165.832031 199.894531 166.386719 199.398438 166.917969 C 198.898438 167.449219 198.378906 167.953125 197.832031 168.429688 C 197.285156 168.910156 196.714844 169.359375 196.121094 169.785156 C 195.53125 170.207031 194.917969 170.601562 194.289062 170.960938 C 193.660156 171.324219 193.011719 171.65625 192.351562 171.957031 C 191.6875 172.257812 191.011719 172.523438 190.324219 172.753906 C 189.632812 172.988281 188.933594 173.1875 188.226562 173.351562 C 187.519531 173.515625 186.804688 173.644531 186.082031 173.738281 C 185.363281 173.832031 184.636719 173.890625 183.910156 173.914062 C 183.183594 173.9375 182.457031 173.925781 181.730469 173.878906 C 181.007812 173.828125 180.285156 173.746094 179.566406 173.625 C 178.851562 173.507812 178.140625 173.351562 177.4375 173.164062 C 176.734375 172.976562 176.042969 172.75 175.363281 172.496094 C 174.683594 172.238281 174.015625 171.949219 173.367188 171.625 C 172.714844 171.304688 172.078125 170.949219 171.460938 170.566406 C 170.84375 170.179688 170.246094 169.765625 169.671875 169.324219 C 169.09375 168.878906 168.542969 168.410156 168.011719 167.910156 C 167.480469 167.414062 166.976562 166.890625 166.496094 166.34375 C 166.019531 165.796875 165.566406 165.226562 165.144531 164.636719 C 164.722656 164.042969 164.328125 163.433594 163.964844 162.804688 C 163.601562 162.171875 163.273438 161.527344 162.972656 160.863281 C 162.671875 160.203125 162.40625 159.527344 162.171875 158.835938 C 161.941406 158.148438 161.742188 157.449219 161.578125 156.742188 C 161.414062 156.03125 161.285156 155.316406 161.1875 154.597656 C 161.09375 153.875 161.035156 153.152344 161.011719 152.425781 C 160.992188 151.699219 161.003906 150.972656 161.050781 150.246094 C 161.101562 149.519531 161.183594 148.796875 161.300781 148.082031 C 161.421875 147.363281 161.574219 146.652344 161.765625 145.953125 C 161.953125 145.25 162.175781 144.558594 162.433594 143.878906 C 162.691406 143.199219 162.980469 142.53125 163.300781 141.878906 C 163.625 141.226562 163.976562 140.59375 164.363281 139.976562 C 164.746094 139.359375 165.160156 138.761719 165.605469 138.183594 C 166.046875 137.609375 166.519531 137.054688 167.015625 136.523438 C 167.515625 135.996094 168.035156 135.492188 168.582031 135.011719 C 169.132812 134.53125 169.699219 134.082031 170.292969 133.660156 C 170.882812 133.234375 171.496094 132.84375 172.125 132.480469 C 172.753906 132.117188 173.402344 131.785156 174.0625 131.484375 C 174.726562 131.1875 175.402344 130.921875 176.089844 130.6875 C 176.78125 130.453125 177.480469 130.253906 178.1875 130.089844 C 178.894531 129.925781 179.609375 129.796875 180.332031 129.703125 C 181.054688 129.609375 181.777344 129.550781 182.503906 129.527344 C 183.230469 129.503906 183.957031 129.515625 184.683594 129.566406 C 185.410156 129.613281 186.128906 129.699219 186.847656 129.816406 C 187.566406 129.9375 188.273438 130.089844 188.976562 130.277344 C 189.679688 130.46875 190.371094 130.691406 191.050781 130.949219 C 191.730469 131.203125 192.398438 131.492188 193.050781 131.816406 Z M 193.050781 131.816406 " fill-opacity="1" fill-rule="nonzero"/></g></g></g><g clip-path="url(#5b9aea1434)"><g clip-path="url(#25a5251a6f)"><g clip-path="url(#3c1bab3931)"><path fill="#ffffff" d="M 218.261719 139.949219 C 218.101562 139.355469 217.867188 139.171875 217.867188 139.171875 C 217.867188 139.171875 218.078125 139.40625 218.261719 139.949219 Z M 218.261719 139.949219 " fill-opacity="1" fill-rule="nonzero"/></g></g></g><g clip-path="url(#a33f8d0cfd)"><g clip-path="url(#c42f8ae5b7)"><g clip-path="url(#9f90d10e76)"><path fill="#ffffff" d="M 190.574219 111.707031 C 174.265625 117.875 165.664062 125.066406 158.058594 140.449219 C 142.820312 171.269531 168.089844 198.25 164.671875 205.164062 C 166.453125 202.613281 172.664062 200.773438 179.835938 198.433594 C 192.265625 194.359375 205.886719 185.25 214.289062 168.253906 C 222.667969 151.3125 220.347656 142.921875 219.273438 140.515625 C 219.828125 142.40625 220.035156 148.394531 211.480469 165.828125 C 205.441406 178.171875 194.269531 184.160156 184.765625 187.417969 C 178.292969 189.648438 168.46875 184.144531 166.3125 177.648438 C 163.476562 169.128906 162.109375 159.074219 168.710938 145.71875 C 175.058594 132.882812 179.089844 129.570312 187.335938 123.882812 C 190.4375 121.792969 192.824219 121.808594 195.980469 120.785156 C 199.941406 119.445312 207.671875 120.421875 210.332031 123.417969 C 211.738281 125.019531 212.230469 124.679688 212.78125 126.179688 C 212.78125 126.179688 220.621094 111.105469 216.195312 101.09375 C 215.152344 105.945312 204.65625 106.382812 190.574219 111.707031 Z M 190.574219 111.707031 " fill-opacity="1" fill-rule="nonzero"/></g></g></g><g clip-path="url(#8b9eec1275)"><g clip-path="url(#2b5029475e)"><g clip-path="url(#85bb293dfe)"><path fill="#ffffff" d="M 118.761719 200.179688 C 117.890625 200.683594 117.957031 201.816406 118.859375 202.230469 C 119.804688 202.664062 121.289062 203.085938 122.632812 203.066406 C 122.625 203.089844 122.597656 203.105469 122.589844 203.125 C 122.453125 203.386719 122.351562 203.707031 122.355469 204.011719 C 121.820312 204.421875 121.375 204.859375 121.140625 205.667969 C 120.847656 206.585938 121.820312 207.25 122.597656 206.71875 C 123.140625 206.363281 123.59375 205.976562 124.023438 205.582031 C 124.699219 205.523438 125.378906 205.210938 125.984375 204.902344 C 126.1875 205.066406 126.46875 205.132812 126.75 205.042969 C 126.984375 205.171875 127.246094 205.304688 127.519531 205.394531 C 128.582031 205.785156 129.527344 204.421875 128.792969 203.554688 C 128.386719 203.09375 127.957031 202.703125 127.496094 202.328125 C 128.464844 201.832031 129.355469 201.179688 130.152344 200.351562 C 130.179688 200.335938 130.1875 200.3125 130.21875 200.296875 C 130.292969 200.21875 130.363281 200.167969 130.4375 200.089844 C 131.339844 199.089844 129.710938 197.707031 128.730469 198.554688 C 128.105469 199.085938 127.355469 199.378906 126.589844 199.636719 C 126.488281 198.617188 126.105469 197.6875 125.539062 196.621094 C 124.910156 195.433594 123.242188 196.058594 123.394531 197.320312 C 123.460938 198.125 123.492188 198.816406 123.554688 199.496094 C 121.9375 199.175781 120.316406 199.261719 118.761719 200.179688 Z M 118.761719 200.179688 " fill-opacity="1" fill-rule="nonzero"/></g></g></g><g clip-path="url(#91af9fd17f)"><g clip-path="url(#127f081bbf)"><g clip-path="url(#4eaa5aba55)"><path fill="#ffffff" d="M 145.550781 192.132812 C 144.667969 191.898438 143.816406 191.953125 142.933594 192.027344 C 142.996094 191.285156 143.070312 190.503906 143.335938 189.90625 C 143.488281 189.675781 143.605469 189.460938 143.6875 189.285156 C 144.058594 188.445312 142.820312 187.742188 142.300781 188.488281 C 141.792969 189.207031 141.65625 190.097656 141.546875 191 C 141.492188 191.160156 141.425781 191.289062 141.351562 191.441406 C 140.953125 190.960938 140.574219 190.484375 140.210938 189.960938 C 140.078125 189.742188 139.945312 189.523438 139.785156 189.320312 C 139.160156 188.511719 137.707031 189.335938 138.21875 190.257812 C 138.492188 190.75 138.808594 191.179688 139.15625 191.59375 C 139.378906 191.996094 139.597656 192.417969 139.824219 192.820312 C 139.179688 192.941406 138.546875 193.167969 137.886719 193.335938 C 136.960938 193.542969 136.886719 195.035156 137.929688 195.09375 C 138.628906 195.117188 139.328125 194.835938 139.996094 194.71875 C 140.078125 195.328125 140.191406 195.921875 140.335938 196.496094 C 140.636719 197.679688 142.292969 197.402344 142.203125 196.1875 C 142.132812 195.457031 142.246094 194.710938 142.261719 193.957031 C 142.664062 193.882812 143.058594 193.835938 143.476562 193.792969 C 144.027344 193.816406 144.574219 193.839844 145.136719 193.820312 C 145.214844 193.820312 145.289062 193.816406 145.363281 193.816406 C 146.199219 193.730469 146.398438 192.328125 145.550781 192.132812 Z M 145.550781 192.132812 " fill-opacity="1" fill-rule="nonzero"/></g></g></g><g clip-path="url(#211c0f49b1)"><g clip-path="url(#8332218934)"><g clip-path="url(#de8239afd8)"><path fill="#ffffff" d="M 142.769531 204.808594 C 144.261719 205.035156 145.703125 204.488281 147.121094 204.085938 C 147.144531 204.09375 147.160156 204.121094 147.183594 204.128906 C 146.164062 205.167969 145.375 206.453125 144.976562 207.84375 C 144.683594 208.910156 146.289062 209.578125 146.613281 208.496094 C 147.140625 207.324219 147.761719 206.335938 148.625 205.453125 C 149.140625 205.972656 149.816406 206.390625 150.519531 206.71875 C 151.175781 207.03125 151.878906 206.34375 151.777344 205.707031 C 151.609375 204.667969 150.457031 203.917969 149.75 203.210938 C 149.777344 202.890625 149.964844 202.546875 150.21875 202.226562 C 150.625 201.902344 151.042969 201.554688 151.402344 201.214844 C 152.269531 200.332031 151.242188 199.042969 150.191406 199.714844 C 149.316406 200.316406 148.402344 201.109375 147.980469 202.113281 C 147.472656 201.339844 146.847656 200.609375 146.398438 199.808594 C 145.808594 198.734375 144.042969 199.507812 144.625 200.605469 C 145.003906 201.308594 145.371094 201.980469 145.757812 202.660156 C 144.765625 202.921875 143.777344 203.085938 142.726562 203.203125 C 141.824219 203.34375 141.898438 204.679688 142.769531 204.808594 Z M 142.769531 204.808594 " fill-opacity="1" fill-rule="nonzero"/></g></g></g><path fill="#ffffff" d="M 224.851562 103.441406 C 223.988281 104.007812 223.988281 105.261719 225.03125 105.648438 C 226.824219 106.308594 228.375 106.546875 229.988281 106.246094 C 229.359375 108.605469 229.210938 110.996094 231.601562 112.546875 C 232.226562 112.964844 233.152344 112.546875 233.210938 111.769531 C 233.273438 110.488281 233.511719 109.234375 233.628906 107.980469 C 235.300781 109.113281 237.210938 109.769531 239.300781 109.890625 C 240.050781 109.949219 240.644531 109.234375 240.496094 108.488281 C 240.019531 106.308594 238.644531 104.933594 236.914062 103.949219 C 237.71875 103.558594 238.496094 103.082031 239.332031 102.457031 C 240.167969 101.859375 239.601562 100.246094 238.554688 100.304688 C 236.707031 100.425781 235.363281 101.203125 233.957031 102.394531 C 233.929688 102.425781 233.898438 102.457031 233.898438 102.484375 C 233.78125 102.515625 233.628906 102.515625 233.511719 102.515625 C 233.480469 102.515625 233.421875 102.546875 233.390625 102.546875 C 233.839844 100.425781 234.109375 97.710938 231.390625 97.5 C 230.644531 97.441406 230.226562 98.097656 230.285156 98.785156 C 230.375 99.886719 230.347656 100.992188 230.40625 102.097656 C 228.464844 101.859375 226.585938 102.304688 224.851562 103.441406 Z M 232.882812 104.605469 C 232.945312 104.636719 233.003906 104.695312 233.0625 104.695312 C 234.703125 105.261719 236.375 105.917969 237.390625 107.234375 C 235.839844 106.816406 234.464844 105.980469 233.183594 104.875 C 233.09375 104.785156 232.972656 104.726562 232.882812 104.695312 C 232.882812 104.664062 232.882812 104.636719 232.882812 104.605469 Z M 232.882812 104.605469 " fill-opacity="1" fill-rule="nonzero"/><g fill="#100f0d" fill-opacity="1"><g transform="translate(104.166129, 252.648353)"><g><path d="M 2 -32 L 11.84375 -32 C 11.894531 -31.300781 11.953125 -30.695312 12.015625 -30.1875 C 12.085938 -29.6875 12.179688 -29.195312 12.296875 -28.71875 C 12.421875 -28.238281 12.578125 -27.648438 12.765625 -26.953125 L 19.765625 -1.4375 L 26.71875 -27.484375 C 26.9375 -28.253906 27.125 -28.953125 27.28125 -29.578125 C 27.4375 -30.203125 27.554688 -31.007812 27.640625 -32 L 29.359375 -32 C 28.847656 -30.957031 28.5 -30.132812 28.3125 -29.53125 C 28.132812 -28.9375 27.9375 -28.265625 27.71875 -27.515625 L 21.203125 -3.234375 C 21.035156 -2.597656 20.9375 -2.066406 20.90625 -1.640625 C 20.882812 -1.210938 20.96875 -0.664062 21.15625 0 L 11.3125 0 L 4 -26.953125 C 3.675781 -28.109375 3.375 -29.035156 3.09375 -29.734375 C 2.820312 -30.441406 2.457031 -31.195312 2 -32 Z M 2 -32 "/></g></g></g><g fill="#100f0d" fill-opacity="1"><g transform="translate(135.523019, 252.648353)"><g><path d="M 2.796875 -32 L 12.046875 -32 C 11.929688 -31.039062 11.832031 -30.140625 11.75 -29.296875 C 11.675781 -28.460938 11.625 -27.5625 11.59375 -26.59375 C 11.570312 -25.632812 11.5625 -24.460938 11.5625 -23.078125 L 11.5625 -8.921875 C 11.5625 -7.554688 11.570312 -6.382812 11.59375 -5.40625 C 11.625 -4.4375 11.675781 -3.53125 11.75 -2.6875 C 11.832031 -1.851562 11.929688 -0.957031 12.046875 0 L 2.796875 0 C 2.929688 -0.957031 3.03125 -1.851562 3.09375 -2.6875 C 3.164062 -3.53125 3.210938 -4.4375 3.234375 -5.40625 C 3.265625 -6.382812 3.28125 -7.554688 3.28125 -8.921875 L 3.28125 -23.078125 C 3.28125 -24.460938 3.265625 -25.632812 3.234375 -26.59375 C 3.210938 -27.5625 3.164062 -28.460938 3.09375 -29.296875 C 3.03125 -30.140625 2.929688 -31.039062 2.796875 -32 Z M 2.796875 -32 "/></g></g></g><g fill="#100f0d" fill-opacity="1"><g transform="translate(150.361541, 252.648353)"><g><path d="M 1.59375 -9.125 L 7.203125 -12.359375 C 7.734375 -10.066406 8.488281 -7.992188 9.46875 -6.140625 C 10.457031 -4.285156 11.664062 -2.820312 13.09375 -1.75 C 14.519531 -0.6875 16.128906 -0.15625 17.921875 -0.15625 C 19.515625 -0.15625 20.75 -0.554688 21.625 -1.359375 C 22.507812 -2.160156 22.953125 -3.238281 22.953125 -4.59375 C 22.953125 -5.5625 22.597656 -6.460938 21.890625 -7.296875 C 21.191406 -8.140625 20.113281 -9.082031 18.65625 -10.125 C 17.207031 -11.164062 15.363281 -12.414062 13.125 -13.875 C 10.800781 -15.425781 8.929688 -16.773438 7.515625 -17.921875 C 6.109375 -19.066406 5.078125 -20.21875 4.421875 -21.375 C 3.765625 -22.539062 3.4375 -23.882812 3.4375 -25.40625 C 3.4375 -27.050781 3.890625 -28.421875 4.796875 -29.515625 C 5.703125 -30.609375 6.894531 -31.425781 8.375 -31.96875 C 9.851562 -32.519531 11.472656 -32.796875 13.234375 -32.796875 C 15.898438 -32.796875 18.347656 -32.195312 20.578125 -31 C 22.804688 -29.800781 24.929688 -27.773438 26.953125 -24.921875 L 21.40625 -22.515625 C 21.050781 -23.691406 20.644531 -24.832031 20.1875 -25.9375 C 19.738281 -27.039062 19.1875 -28.03125 18.53125 -28.90625 C 17.882812 -29.789062 17.085938 -30.5 16.140625 -31.03125 C 15.191406 -31.570312 14.066406 -31.84375 12.765625 -31.84375 C 11.242188 -31.84375 10.0625 -31.5 9.21875 -30.8125 C 8.375 -30.132812 7.953125 -29.316406 7.953125 -28.359375 C 7.953125 -27.640625 8.160156 -26.976562 8.578125 -26.375 C 8.992188 -25.78125 9.753906 -25.085938 10.859375 -24.296875 C 11.960938 -23.515625 13.539062 -22.46875 15.59375 -21.15625 C 17.59375 -19.875 19.332031 -18.71875 20.8125 -17.6875 C 22.300781 -16.664062 23.535156 -15.660156 24.515625 -14.671875 C 25.503906 -13.691406 26.242188 -12.644531 26.734375 -11.53125 C 27.234375 -10.425781 27.484375 -9.171875 27.484375 -7.765625 C 27.484375 -5.816406 27.015625 -4.207031 26.078125 -2.9375 C 25.148438 -1.675781 23.910156 -0.738281 22.359375 -0.125 C 20.816406 0.488281 19.132812 0.796875 17.3125 0.796875 C 15.050781 0.796875 12.976562 0.476562 11.09375 -0.15625 C 9.21875 -0.800781 7.5 -1.847656 5.9375 -3.296875 C 4.375 -4.753906 2.925781 -6.695312 1.59375 -9.125 Z M 1.59375 -9.125 "/></g></g></g><g fill="#100f0d" fill-opacity="1"><g transform="translate(179.438653, 252.648353)"><g><path d="M 2.796875 -32 L 12.046875 -32 C 11.929688 -31.039062 11.832031 -30.140625 11.75 -29.296875 C 11.675781 -28.460938 11.625 -27.5625 11.59375 -26.59375 C 11.570312 -25.632812 11.5625 -24.460938 11.5625 -23.078125 L 11.5625 -8.921875 C 11.5625 -7.554688 11.570312 -6.382812 11.59375 -5.40625 C 11.625 -4.4375 11.675781 -3.53125 11.75 -2.6875 C 11.832031 -1.851562 11.929688 -0.957031 12.046875 0 L 2.796875 0 C 2.929688 -0.957031 3.03125 -1.851562 3.09375 -2.6875 C 3.164062 -3.53125 3.210938 -4.4375 3.234375 -5.40625 C 3.265625 -6.382812 3.28125 -7.554688 3.28125 -8.921875 L 3.28125 -23.078125 C 3.28125 -24.460938 3.265625 -25.632812 3.234375 -26.59375 C 3.210938 -27.5625 3.164062 -28.460938 3.09375 -29.296875 C 3.03125 -30.140625 2.929688 -31.039062 2.796875 -32 Z M 2.796875 -32 "/></g></g></g><g fill="#100f0d" fill-opacity="1"><g transform="translate(194.277176, 252.648353)"><g><path d="M 21.921875 0.796875 C 19.148438 0.796875 16.578125 0.425781 14.203125 -0.3125 C 11.828125 -1.0625 9.757812 -2.148438 8 -3.578125 C 6.238281 -5.003906 4.863281 -6.765625 3.875 -8.859375 C 2.894531 -10.953125 2.40625 -13.332031 2.40625 -16 C 2.40625 -18.664062 2.894531 -21.035156 3.875 -23.109375 C 4.863281 -25.191406 6.238281 -26.953125 8 -28.390625 C 9.757812 -29.835938 11.828125 -30.929688 14.203125 -31.671875 C 16.578125 -32.421875 19.148438 -32.796875 21.921875 -32.796875 C 24.691406 -32.796875 27.253906 -32.421875 29.609375 -31.671875 C 31.972656 -30.929688 34.035156 -29.835938 35.796875 -28.390625 C 37.554688 -26.953125 38.929688 -25.191406 39.921875 -23.109375 C 40.910156 -21.035156 41.40625 -18.664062 41.40625 -16 C 41.40625 -13.332031 40.910156 -10.953125 39.921875 -8.859375 C 38.929688 -6.765625 37.554688 -5.003906 35.796875 -3.578125 C 34.035156 -2.148438 31.972656 -1.0625 29.609375 -0.3125 C 27.253906 0.425781 24.691406 0.796875 21.921875 0.796875 Z M 21.921875 -0.15625 C 23.765625 -0.15625 25.351562 -0.582031 26.6875 -1.4375 C 28.019531 -2.289062 29.117188 -3.453125 29.984375 -4.921875 C 30.847656 -6.390625 31.484375 -8.078125 31.890625 -9.984375 C 32.304688 -11.890625 32.515625 -13.894531 32.515625 -16 C 32.515625 -18.101562 32.304688 -20.101562 31.890625 -22 C 31.484375 -23.894531 30.847656 -25.582031 29.984375 -27.0625 C 29.117188 -28.539062 28.019531 -29.707031 26.6875 -30.5625 C 25.351562 -31.414062 23.765625 -31.84375 21.921875 -31.84375 C 20.078125 -31.84375 18.484375 -31.414062 17.140625 -30.5625 C 15.796875 -29.707031 14.6875 -28.539062 13.8125 -27.0625 C 12.945312 -25.582031 12.304688 -23.894531 11.890625 -22 C 11.484375 -20.101562 11.28125 -18.101562 11.28125 -16 C 11.28125 -13.894531 11.484375 -11.890625 11.890625 -9.984375 C 12.304688 -8.078125 12.945312 -6.390625 13.8125 -4.921875 C 14.6875 -3.453125 15.796875 -2.289062 17.140625 -1.4375 C 18.484375 -0.582031 20.078125 -0.15625 21.921875 -0.15625 Z M 21.921875 -0.15625 "/></g></g></g><g fill="#100f0d" fill-opacity="1"><g transform="translate(238.07282, 252.648353)"><g><path d="M 2.796875 0 C 2.929688 -0.957031 3.03125 -1.851562 3.09375 -2.6875 C 3.164062 -3.53125 3.210938 -4.4375 3.234375 -5.40625 C 3.265625 -6.382812 3.28125 -7.554688 3.28125 -8.921875 L 3.28125 -23.078125 C 3.28125 -24.460938 3.265625 -25.632812 3.234375 -26.59375 C 3.210938 -27.5625 3.164062 -28.460938 3.09375 -29.296875 C 3.03125 -30.140625 2.929688 -31.039062 2.796875 -32 L 12.796875 -32 L 28.359375 -2.046875 L 28.640625 -2 L 28.640625 -23.078125 C 28.640625 -24.460938 28.617188 -25.632812 28.578125 -26.59375 C 28.535156 -27.5625 28.476562 -28.460938 28.40625 -29.296875 C 28.34375 -30.140625 28.257812 -31.039062 28.15625 -32 L 29.953125 -32 C 29.847656 -31.039062 29.753906 -30.140625 29.671875 -29.296875 C 29.597656 -28.460938 29.546875 -27.5625 29.515625 -26.59375 C 29.492188 -25.632812 29.484375 -24.460938 29.484375 -23.078125 L 29.484375 -8.921875 C 29.484375 -7.554688 29.492188 -6.382812 29.515625 -5.40625 C 29.546875 -4.4375 29.597656 -3.53125 29.671875 -2.6875 C 29.753906 -1.851562 29.847656 -0.957031 29.953125 0 L 19.953125 0 L 4.40625 -29.953125 L 4.125 -30 L 4.125 -8.921875 C 4.125 -7.554688 4.132812 -6.382812 4.15625 -5.40625 C 4.1875 -4.4375 4.238281 -3.53125 4.3125 -2.6875 C 4.394531 -1.851562 4.488281 -0.957031 4.59375 0 Z M 2.796875 0 "/></g></g></g><g transform="matrix(1, 0, 0, 1, 132, 258)"><g clip-path="url(#1669d36f45)"><g fill="#100f0d" fill-opacity="1"><g transform="translate(0.424992, 17.094623)"><g><path d="M 10.015625 -8.265625 C 10.878906 -8.117188 11.628906 -7.882812 12.265625 -7.5625 C 12.898438 -7.238281 13.394531 -6.796875 13.75 -6.234375 C 14.113281 -5.671875 14.296875 -4.96875 14.296875 -4.125 C 14.296875 -3.070312 14.03125 -2.242188 13.5 -1.640625 C 12.96875 -1.035156 12.25 -0.609375 11.34375 -0.359375 C 10.4375 -0.117188 9.421875 0 8.296875 0 L 1.296875 0 C 1.359375 -0.445312 1.40625 -0.863281 1.4375 -1.25 C 1.46875 -1.644531 1.488281 -2.066406 1.5 -2.515625 C 1.507812 -2.960938 1.515625 -3.503906 1.515625 -4.140625 L 1.515625 -10.703125 C 1.515625 -11.347656 1.507812 -11.890625 1.5 -12.328125 C 1.488281 -12.773438 1.46875 -13.191406 1.4375 -13.578125 C 1.40625 -13.972656 1.359375 -14.394531 1.296875 -14.84375 L 7.953125 -14.84375 C 8.660156 -14.84375 9.328125 -14.796875 9.953125 -14.703125 C 10.585938 -14.617188 11.148438 -14.457031 11.640625 -14.21875 C 12.128906 -13.988281 12.507812 -13.648438 12.78125 -13.203125 C 13.0625 -12.753906 13.203125 -12.175781 13.203125 -11.46875 C 13.203125 -10.5625 12.945312 -9.851562 12.4375 -9.34375 C 11.925781 -8.84375 11.117188 -8.484375 10.015625 -8.265625 Z M 5.359375 -14.390625 L 5.359375 -8.5 L 6.515625 -8.5 C 7.546875 -8.5 8.273438 -8.75 8.703125 -9.25 C 9.128906 -9.75 9.34375 -10.488281 9.34375 -11.46875 C 9.34375 -12.476562 9.0625 -13.21875 8.5 -13.6875 C 7.945312 -14.15625 7.253906 -14.390625 6.421875 -14.390625 Z M 6.609375 -0.4375 C 7.242188 -0.4375 7.832031 -0.546875 8.375 -0.765625 C 8.914062 -0.992188 9.347656 -1.367188 9.671875 -1.890625 C 9.992188 -2.421875 10.15625 -3.144531 10.15625 -4.0625 C 10.15625 -4.882812 10.050781 -5.554688 9.84375 -6.078125 C 9.644531 -6.597656 9.375 -7 9.03125 -7.28125 C 8.695312 -7.570312 8.328125 -7.769531 7.921875 -7.875 C 7.515625 -7.988281 7.109375 -8.046875 6.703125 -8.046875 L 5.359375 -8.046875 L 5.359375 -0.4375 Z M 6.609375 -0.4375 "/></g></g></g><g fill="#100f0d" fill-opacity="1"><g transform="translate(15.655473, 17.094623)"><g><path d="M 10.15625 0.375 C 8.875 0.375 7.679688 0.203125 6.578125 -0.140625 C 5.484375 -0.492188 4.523438 -1 3.703125 -1.65625 C 2.890625 -2.320312 2.253906 -3.140625 1.796875 -4.109375 C 1.335938 -5.078125 1.109375 -6.179688 1.109375 -7.421875 C 1.109375 -8.648438 1.335938 -9.75 1.796875 -10.71875 C 2.253906 -11.6875 2.890625 -12.503906 3.703125 -13.171875 C 4.523438 -13.835938 5.484375 -14.34375 6.578125 -14.6875 C 7.679688 -15.03125 8.875 -15.203125 10.15625 -15.203125 C 11.445312 -15.203125 12.640625 -15.03125 13.734375 -14.6875 C 14.828125 -14.34375 15.78125 -13.835938 16.59375 -13.171875 C 17.414062 -12.503906 18.054688 -11.6875 18.515625 -10.71875 C 18.972656 -9.75 19.203125 -8.648438 19.203125 -7.421875 C 19.203125 -6.179688 18.972656 -5.078125 18.515625 -4.109375 C 18.054688 -3.140625 17.414062 -2.320312 16.59375 -1.65625 C 15.78125 -1 14.828125 -0.492188 13.734375 -0.140625 C 12.640625 0.203125 11.445312 0.375 10.15625 0.375 Z M 10.15625 -0.078125 C 11.007812 -0.078125 11.742188 -0.273438 12.359375 -0.671875 C 12.984375 -1.066406 13.492188 -1.601562 13.890625 -2.28125 C 14.296875 -2.957031 14.59375 -3.738281 14.78125 -4.625 C 14.976562 -5.507812 15.078125 -6.441406 15.078125 -7.421875 C 15.078125 -8.398438 14.976562 -9.328125 14.78125 -10.203125 C 14.59375 -11.078125 14.296875 -11.859375 13.890625 -12.546875 C 13.492188 -13.234375 12.984375 -13.773438 12.359375 -14.171875 C 11.742188 -14.566406 11.007812 -14.765625 10.15625 -14.765625 C 9.3125 -14.765625 8.578125 -14.566406 7.953125 -14.171875 C 7.328125 -13.773438 6.8125 -13.234375 6.40625 -12.546875 C 6.007812 -11.859375 5.710938 -11.078125 5.515625 -10.203125 C 5.328125 -9.328125 5.234375 -8.398438 5.234375 -7.421875 C 5.234375 -6.441406 5.328125 -5.507812 5.515625 -4.625 C 5.710938 -3.738281 6.007812 -2.957031 6.40625 -2.28125 C 6.8125 -1.601562 7.328125 -1.066406 7.953125 -0.671875 C 8.578125 -0.273438 9.3125 -0.078125 10.15625 -0.078125 Z M 10.15625 -0.078125 "/></g></g></g><g fill="#100f0d" fill-opacity="1"><g transform="translate(35.968969, 17.094623)"><g><path d="M 12.703125 -2.34375 C 12.835938 -1.8125 12.972656 -1.378906 13.109375 -1.046875 C 13.242188 -0.722656 13.410156 -0.375 13.609375 0 L 9.046875 0 C 9.035156 -0.332031 9.007812 -0.613281 8.96875 -0.84375 C 8.9375 -1.070312 8.890625 -1.300781 8.828125 -1.53125 C 8.773438 -1.757812 8.707031 -2.03125 8.625 -2.34375 L 7.828125 -5.25 L 2.984375 -5.25 L 2.15625 -2.09375 C 2.0625 -1.75 1.972656 -1.425781 1.890625 -1.125 C 1.816406 -0.832031 1.769531 -0.457031 1.75 0 L 0.921875 0 C 1.160156 -0.476562 1.328125 -0.859375 1.421875 -1.140625 C 1.515625 -1.421875 1.601562 -1.734375 1.6875 -2.078125 L 4.703125 -13.328125 C 4.785156 -13.628906 4.832031 -13.878906 4.84375 -14.078125 C 4.863281 -14.273438 4.828125 -14.53125 4.734375 -14.84375 L 9.296875 -14.84375 Z M 3.109375 -5.6875 L 7.703125 -5.6875 L 5.375 -14.171875 Z M 3.109375 -5.6875 "/></g></g></g><g fill="#100f0d" fill-opacity="1"><g transform="translate(50.513065, 17.094623)"><g><path d="M 12.8125 -3.40625 C 13.125 -2.695312 13.425781 -2.117188 13.71875 -1.671875 C 14.019531 -1.222656 14.359375 -0.894531 14.734375 -0.6875 C 15.117188 -0.488281 15.585938 -0.390625 16.140625 -0.390625 L 16.140625 0 C 15.171875 0 14.289062 -0.03125 13.5 -0.09375 C 12.71875 -0.164062 12.019531 -0.3125 11.40625 -0.53125 C 10.789062 -0.75 10.269531 -1.078125 9.84375 -1.515625 C 9.414062 -1.953125 9.078125 -2.539062 8.828125 -3.28125 C 8.578125 -4.050781 8.347656 -4.671875 8.140625 -5.140625 C 7.929688 -5.617188 7.710938 -5.984375 7.484375 -6.234375 C 7.253906 -6.484375 6.988281 -6.648438 6.6875 -6.734375 C 6.394531 -6.816406 6.039062 -6.859375 5.625 -6.859375 L 5.359375 -6.859375 L 5.359375 -4.140625 C 5.359375 -3.503906 5.363281 -2.960938 5.375 -2.515625 C 5.382812 -2.066406 5.410156 -1.644531 5.453125 -1.25 C 5.492188 -0.863281 5.535156 -0.445312 5.578125 0 L 1.296875 0 C 1.359375 -0.445312 1.40625 -0.863281 1.4375 -1.25 C 1.46875 -1.644531 1.488281 -2.066406 1.5 -2.515625 C 1.507812 -2.960938 1.515625 -3.503906 1.515625 -4.140625 L 1.515625 -10.703125 C 1.515625 -11.347656 1.507812 -11.890625 1.5 -12.328125 C 1.488281 -12.773438 1.46875 -13.191406 1.4375 -13.578125 C 1.40625 -13.972656 1.359375 -14.394531 1.296875 -14.84375 L 6.484375 -14.84375 C 7.410156 -14.84375 8.296875 -14.785156 9.140625 -14.671875 C 9.984375 -14.566406 10.734375 -14.375 11.390625 -14.09375 C 12.046875 -13.820312 12.5625 -13.421875 12.9375 -12.890625 C 13.3125 -12.367188 13.5 -11.6875 13.5 -10.84375 C 13.5 -9.90625 13.265625 -9.164062 12.796875 -8.625 C 12.335938 -8.09375 11.71875 -7.695312 10.9375 -7.4375 C 10.164062 -7.175781 9.289062 -7.003906 8.3125 -6.921875 C 9.289062 -6.753906 10.164062 -6.40625 10.9375 -5.875 C 11.707031 -5.351562 12.332031 -4.53125 12.8125 -3.40625 Z M 5.359375 -7.3125 L 6.4375 -7.3125 C 7.03125 -7.3125 7.566406 -7.410156 8.046875 -7.609375 C 8.523438 -7.816406 8.910156 -8.171875 9.203125 -8.671875 C 9.492188 -9.179688 9.640625 -9.90625 9.640625 -10.84375 C 9.640625 -11.789062 9.492188 -12.515625 9.203125 -13.015625 C 8.910156 -13.523438 8.523438 -13.878906 8.046875 -14.078125 C 7.566406 -14.285156 7.03125 -14.390625 6.4375 -14.390625 L 5.359375 -14.390625 Z M 5.359375 -7.3125 "/></g></g></g><g fill="#100f0d" fill-opacity="1"><g transform="translate(67.264741, 17.094623)"><g><path d="M 1.296875 0 C 1.359375 -0.445312 1.40625 -0.863281 1.4375 -1.25 C 1.46875 -1.644531 1.488281 -2.066406 1.5 -2.515625 C 1.507812 -2.960938 1.515625 -3.503906 1.515625 -4.140625 L 1.515625 -10.703125 C 1.515625 -11.347656 1.507812 -11.890625 1.5 -12.328125 C 1.488281 -12.773438 1.46875 -13.191406 1.4375 -13.578125 C 1.40625 -13.972656 1.359375 -14.394531 1.296875 -14.84375 L 6.921875 -14.84375 C 8.628906 -14.84375 10.109375 -14.578125 11.359375 -14.046875 C 12.617188 -13.515625 13.585938 -12.695312 14.265625 -11.59375 C 14.953125 -10.5 15.296875 -9.109375 15.296875 -7.421875 C 15.296875 -5.796875 14.957031 -4.429688 14.28125 -3.328125 C 13.613281 -2.222656 12.648438 -1.390625 11.390625 -0.828125 C 10.140625 -0.273438 8.648438 0 6.921875 0 Z M 6.78125 -0.4375 C 8.101562 -0.4375 9.164062 -1.019531 9.96875 -2.1875 C 10.78125 -3.363281 11.1875 -5.109375 11.1875 -7.421875 C 11.1875 -9.828125 10.78125 -11.585938 9.96875 -12.703125 C 9.164062 -13.828125 8.101562 -14.390625 6.78125 -14.390625 L 5.359375 -14.390625 L 5.359375 -0.4375 Z M 6.78125 -0.4375 "/></g></g></g><g fill="#100f0d" fill-opacity="1"><g transform="translate(83.682496, 17.094623)"><g/></g></g><g fill="#100f0d" fill-opacity="1"><g transform="translate(89.136531, 17.094623)"><g><path d="M 12.703125 -2.34375 C 12.835938 -1.8125 12.972656 -1.378906 13.109375 -1.046875 C 13.242188 -0.722656 13.410156 -0.375 13.609375 0 L 9.046875 0 C 9.035156 -0.332031 9.007812 -0.613281 8.96875 -0.84375 C 8.9375 -1.070312 8.890625 -1.300781 8.828125 -1.53125 C 8.773438 -1.757812 8.707031 -2.03125 8.625 -2.34375 L 7.828125 -5.25 L 2.984375 -5.25 L 2.15625 -2.09375 C 2.0625 -1.75 1.972656 -1.425781 1.890625 -1.125 C 1.816406 -0.832031 1.769531 -0.457031 1.75 0 L 0.921875 0 C 1.160156 -0.476562 1.328125 -0.859375 1.421875 -1.140625 C 1.515625 -1.421875 1.601562 -1.734375 1.6875 -2.078125 L 4.703125 -13.328125 C 4.785156 -13.628906 4.832031 -13.878906 4.84375 -14.078125 C 4.863281 -14.273438 4.828125 -14.53125 4.734375 -14.84375 L 9.296875 -14.84375 Z M 3.109375 -5.6875 L 7.703125 -5.6875 L 5.375 -14.171875 Z M 3.109375 -5.6875 "/></g></g></g><g fill="#100f0d" fill-opacity="1"><g transform="translate(103.680627, 17.094623)"><g><path d="M 1.296875 -14.84375 L 5.578125 -14.84375 C 5.535156 -14.394531 5.492188 -13.972656 5.453125 -13.578125 C 5.410156 -13.191406 5.382812 -12.773438 5.375 -12.328125 C 5.363281 -11.890625 5.359375 -11.347656 5.359375 -10.703125 L 5.359375 -4.140625 C 5.359375 -3.503906 5.363281 -2.960938 5.375 -2.515625 C 5.382812 -2.066406 5.410156 -1.644531 5.453125 -1.25 C 5.492188 -0.863281 5.535156 -0.445312 5.578125 0 L 1.296875 0 C 1.359375 -0.445312 1.40625 -0.863281 1.4375 -1.25 C 1.46875 -1.644531 1.488281 -2.066406 1.5 -2.515625 C 1.507812 -2.960938 1.515625 -3.503906 1.515625 -4.140625 L 1.515625 -10.703125 C 1.515625 -11.347656 1.507812 -11.890625 1.5 -12.328125 C 1.488281 -12.773438 1.46875 -13.191406 1.4375 -13.578125 C 1.40625 -13.972656 1.359375 -14.394531 1.296875 -14.84375 Z M 1.296875 -14.84375 "/></g></g></g></g></g></svg>